<mxfile host="app.diagrams.net" modified="2022-04-27T12:05:59.646Z" agent="5.0 (Windows NT 10.0; WOW64) AppleWebKit/537.36 (KHTML, like Gecko) Chrome/86.0.4240.198 Safari/537.36" etag="TgaUmP6yd7wkNiQQ9WsN" version="17.4.6" type="github">
  <diagram id="hV38s8yOrOusin9FNJrO" name="Page-1">
    <mxGraphModel dx="1416" dy="803" grid="1" gridSize="10" guides="1" tooltips="1" connect="1" arrows="1" fold="1" page="1" pageScale="1" pageWidth="827" pageHeight="1169" math="0" shadow="0">
      <root>
        <mxCell id="0" />
        <mxCell id="1" parent="0" />
        <mxCell id="0bW14wzQByv-zD3mdwpl-3" value="" style="group" parent="1" vertex="1" connectable="0">
          <mxGeometry x="110" y="160" width="100" height="130" as="geometry" />
        </mxCell>
        <mxCell id="0bW14wzQByv-zD3mdwpl-1" value="2人" style="whiteSpace=wrap;html=1;aspect=fixed;fillColor=#dae8fc;strokeColor=#6c8ebf;" parent="0bW14wzQByv-zD3mdwpl-3" vertex="1">
          <mxGeometry width="100" height="100" as="geometry" />
        </mxCell>
        <mxCell id="0bW14wzQByv-zD3mdwpl-2" value="0点" style="rounded=0;whiteSpace=wrap;html=1;fillColor=#dae8fc;strokeColor=#6c8ebf;" parent="0bW14wzQByv-zD3mdwpl-3" vertex="1">
          <mxGeometry y="100" width="100" height="30" as="geometry" />
        </mxCell>
        <mxCell id="0bW14wzQByv-zD3mdwpl-4" value="" style="group" parent="1" vertex="1" connectable="0">
          <mxGeometry x="230" y="160" width="100" height="130" as="geometry" />
        </mxCell>
        <mxCell id="0bW14wzQByv-zD3mdwpl-5" value="2人" style="whiteSpace=wrap;html=1;aspect=fixed;fillColor=#dae8fc;strokeColor=#6c8ebf;" parent="0bW14wzQByv-zD3mdwpl-4" vertex="1">
          <mxGeometry width="100" height="100" as="geometry" />
        </mxCell>
        <mxCell id="0bW14wzQByv-zD3mdwpl-6" value="1点" style="rounded=0;whiteSpace=wrap;html=1;fillColor=#dae8fc;strokeColor=#6c8ebf;" parent="0bW14wzQByv-zD3mdwpl-4" vertex="1">
          <mxGeometry y="100" width="100" height="30" as="geometry" />
        </mxCell>
        <mxCell id="0bW14wzQByv-zD3mdwpl-7" value="" style="group" parent="1" vertex="1" connectable="0">
          <mxGeometry x="350" y="160" width="100" height="130" as="geometry" />
        </mxCell>
        <mxCell id="0bW14wzQByv-zD3mdwpl-8" value="2人" style="whiteSpace=wrap;html=1;aspect=fixed;fillColor=#dae8fc;strokeColor=#6c8ebf;" parent="0bW14wzQByv-zD3mdwpl-7" vertex="1">
          <mxGeometry width="100" height="100" as="geometry" />
        </mxCell>
        <mxCell id="0bW14wzQByv-zD3mdwpl-9" value="2点" style="rounded=0;whiteSpace=wrap;html=1;fillColor=#dae8fc;strokeColor=#6c8ebf;" parent="0bW14wzQByv-zD3mdwpl-7" vertex="1">
          <mxGeometry y="100" width="100" height="30" as="geometry" />
        </mxCell>
        <mxCell id="0bW14wzQByv-zD3mdwpl-10" value="" style="group;fillColor=#dae8fc;strokeColor=#6c8ebf;" parent="1" vertex="1" connectable="0">
          <mxGeometry x="470" y="160" width="100" height="130" as="geometry" />
        </mxCell>
        <mxCell id="0bW14wzQByv-zD3mdwpl-11" value="2人" style="whiteSpace=wrap;html=1;aspect=fixed;fillColor=#dae8fc;strokeColor=#6c8ebf;" parent="0bW14wzQByv-zD3mdwpl-10" vertex="1">
          <mxGeometry width="100" height="100" as="geometry" />
        </mxCell>
        <mxCell id="0bW14wzQByv-zD3mdwpl-12" value="3点" style="rounded=0;whiteSpace=wrap;html=1;fillColor=#dae8fc;strokeColor=#6c8ebf;" parent="0bW14wzQByv-zD3mdwpl-10" vertex="1">
          <mxGeometry y="100" width="100" height="30" as="geometry" />
        </mxCell>
        <mxCell id="0bW14wzQByv-zD3mdwpl-19" value="" style="group" parent="1" vertex="1" connectable="0">
          <mxGeometry x="110" y="350" width="100" height="130" as="geometry" />
        </mxCell>
        <mxCell id="0bW14wzQByv-zD3mdwpl-20" value="2人" style="whiteSpace=wrap;html=1;aspect=fixed;fillColor=#dae8fc;strokeColor=#6c8ebf;" parent="0bW14wzQByv-zD3mdwpl-19" vertex="1">
          <mxGeometry width="100" height="100" as="geometry" />
        </mxCell>
        <mxCell id="0bW14wzQByv-zD3mdwpl-21" value="6点" style="rounded=0;whiteSpace=wrap;html=1;fillColor=#dae8fc;strokeColor=#6c8ebf;" parent="0bW14wzQByv-zD3mdwpl-19" vertex="1">
          <mxGeometry y="100" width="100" height="30" as="geometry" />
        </mxCell>
        <mxCell id="0bW14wzQByv-zD3mdwpl-22" value="" style="group;fillColor=#dae8fc;strokeColor=#6c8ebf;" parent="1" vertex="1" connectable="0">
          <mxGeometry x="230" y="350" width="100" height="130" as="geometry" />
        </mxCell>
        <mxCell id="0bW14wzQByv-zD3mdwpl-23" value="2人" style="whiteSpace=wrap;html=1;aspect=fixed;fillColor=#dae8fc;strokeColor=#6c8ebf;" parent="0bW14wzQByv-zD3mdwpl-22" vertex="1">
          <mxGeometry width="100" height="100" as="geometry" />
        </mxCell>
        <mxCell id="0bW14wzQByv-zD3mdwpl-24" value="7点" style="rounded=0;whiteSpace=wrap;html=1;fillColor=#dae8fc;strokeColor=#6c8ebf;" parent="0bW14wzQByv-zD3mdwpl-22" vertex="1">
          <mxGeometry y="100" width="100" height="30" as="geometry" />
        </mxCell>
        <mxCell id="0bW14wzQByv-zD3mdwpl-25" value="" style="group;fillColor=#dae8fc;strokeColor=#6c8ebf;" parent="1" vertex="1" connectable="0">
          <mxGeometry x="350" y="350" width="100" height="130" as="geometry" />
        </mxCell>
        <mxCell id="0bW14wzQByv-zD3mdwpl-26" value="2人" style="whiteSpace=wrap;html=1;aspect=fixed;fillColor=#dae8fc;strokeColor=#6c8ebf;" parent="0bW14wzQByv-zD3mdwpl-25" vertex="1">
          <mxGeometry width="100" height="100" as="geometry" />
        </mxCell>
        <mxCell id="0bW14wzQByv-zD3mdwpl-27" value="8点" style="rounded=0;whiteSpace=wrap;html=1;fillColor=#dae8fc;strokeColor=#6c8ebf;" parent="0bW14wzQByv-zD3mdwpl-25" vertex="1">
          <mxGeometry y="100" width="100" height="30" as="geometry" />
        </mxCell>
        <mxCell id="0bW14wzQByv-zD3mdwpl-28" value="" style="group" parent="1" vertex="1" connectable="0">
          <mxGeometry x="470" y="350" width="100" height="130" as="geometry" />
        </mxCell>
        <mxCell id="0bW14wzQByv-zD3mdwpl-29" value="2人" style="whiteSpace=wrap;html=1;aspect=fixed;" parent="0bW14wzQByv-zD3mdwpl-28" vertex="1">
          <mxGeometry width="100" height="100" as="geometry" />
        </mxCell>
        <mxCell id="0bW14wzQByv-zD3mdwpl-30" value="9点" style="rounded=0;whiteSpace=wrap;html=1;" parent="0bW14wzQByv-zD3mdwpl-28" vertex="1">
          <mxGeometry y="100" width="100" height="30" as="geometry" />
        </mxCell>
        <mxCell id="0bW14wzQByv-zD3mdwpl-31" value="" style="group" parent="1" vertex="1" connectable="0">
          <mxGeometry x="717" y="160" width="110" height="130" as="geometry" />
        </mxCell>
        <mxCell id="0bW14wzQByv-zD3mdwpl-32" value="2人" style="whiteSpace=wrap;html=1;aspect=fixed;fillColor=#dae8fc;strokeColor=#6c8ebf;" parent="0bW14wzQByv-zD3mdwpl-31" vertex="1">
          <mxGeometry width="100" height="100" as="geometry" />
        </mxCell>
        <mxCell id="0bW14wzQByv-zD3mdwpl-33" value="5点" style="rounded=0;whiteSpace=wrap;html=1;fillColor=#dae8fc;strokeColor=#6c8ebf;" parent="0bW14wzQByv-zD3mdwpl-31" vertex="1">
          <mxGeometry y="100" width="100" height="30" as="geometry" />
        </mxCell>
        <mxCell id="0bW14wzQByv-zD3mdwpl-34" value="" style="group" parent="1" vertex="1" connectable="0">
          <mxGeometry x="110" y="540" width="100" height="130" as="geometry" />
        </mxCell>
        <mxCell id="0bW14wzQByv-zD3mdwpl-35" value="2人" style="whiteSpace=wrap;html=1;aspect=fixed;" parent="0bW14wzQByv-zD3mdwpl-34" vertex="1">
          <mxGeometry width="100" height="100" as="geometry" />
        </mxCell>
        <mxCell id="0bW14wzQByv-zD3mdwpl-36" value="12点" style="rounded=0;whiteSpace=wrap;html=1;" parent="0bW14wzQByv-zD3mdwpl-34" vertex="1">
          <mxGeometry y="100" width="100" height="30" as="geometry" />
        </mxCell>
        <mxCell id="0bW14wzQByv-zD3mdwpl-37" value="" style="group" parent="1" vertex="1" connectable="0">
          <mxGeometry x="230" y="540" width="100" height="130" as="geometry" />
        </mxCell>
        <mxCell id="0bW14wzQByv-zD3mdwpl-38" value="2人" style="whiteSpace=wrap;html=1;aspect=fixed;" parent="0bW14wzQByv-zD3mdwpl-37" vertex="1">
          <mxGeometry width="100" height="100" as="geometry" />
        </mxCell>
        <mxCell id="0bW14wzQByv-zD3mdwpl-39" value="13点" style="rounded=0;whiteSpace=wrap;html=1;" parent="0bW14wzQByv-zD3mdwpl-37" vertex="1">
          <mxGeometry y="100" width="100" height="30" as="geometry" />
        </mxCell>
        <mxCell id="0bW14wzQByv-zD3mdwpl-40" value="" style="group" parent="1" vertex="1" connectable="0">
          <mxGeometry x="350" y="540" width="100" height="130" as="geometry" />
        </mxCell>
        <mxCell id="0bW14wzQByv-zD3mdwpl-41" value="2人" style="whiteSpace=wrap;html=1;aspect=fixed;" parent="0bW14wzQByv-zD3mdwpl-40" vertex="1">
          <mxGeometry width="100" height="100" as="geometry" />
        </mxCell>
        <mxCell id="0bW14wzQByv-zD3mdwpl-42" value="14点" style="rounded=0;whiteSpace=wrap;html=1;" parent="0bW14wzQByv-zD3mdwpl-40" vertex="1">
          <mxGeometry y="100" width="100" height="30" as="geometry" />
        </mxCell>
        <mxCell id="0bW14wzQByv-zD3mdwpl-43" value="" style="group" parent="1" vertex="1" connectable="0">
          <mxGeometry x="470" y="540" width="100" height="130" as="geometry" />
        </mxCell>
        <mxCell id="0bW14wzQByv-zD3mdwpl-44" value="2人" style="whiteSpace=wrap;html=1;aspect=fixed;" parent="0bW14wzQByv-zD3mdwpl-43" vertex="1">
          <mxGeometry width="100" height="100" as="geometry" />
        </mxCell>
        <mxCell id="0bW14wzQByv-zD3mdwpl-45" value="15点" style="rounded=0;whiteSpace=wrap;html=1;" parent="0bW14wzQByv-zD3mdwpl-43" vertex="1">
          <mxGeometry y="100" width="100" height="30" as="geometry" />
        </mxCell>
        <mxCell id="0bW14wzQByv-zD3mdwpl-46" value="" style="group" parent="1" vertex="1" connectable="0">
          <mxGeometry x="590" y="350" width="110" height="130" as="geometry" />
        </mxCell>
        <mxCell id="0bW14wzQByv-zD3mdwpl-47" value="2人" style="whiteSpace=wrap;html=1;aspect=fixed;" parent="0bW14wzQByv-zD3mdwpl-46" vertex="1">
          <mxGeometry width="100" height="100" as="geometry" />
        </mxCell>
        <mxCell id="0bW14wzQByv-zD3mdwpl-48" value="10点" style="rounded=0;whiteSpace=wrap;html=1;" parent="0bW14wzQByv-zD3mdwpl-46" vertex="1">
          <mxGeometry y="100" width="100" height="30" as="geometry" />
        </mxCell>
        <mxCell id="0bW14wzQByv-zD3mdwpl-49" value="配送人员设置：" style="text;html=1;strokeColor=none;fillColor=none;align=center;verticalAlign=middle;whiteSpace=wrap;rounded=0;" parent="1" vertex="1">
          <mxGeometry x="110" y="60" width="100" height="40" as="geometry" />
        </mxCell>
        <mxCell id="0bW14wzQByv-zD3mdwpl-50" value="" style="group" parent="1" vertex="1" connectable="0">
          <mxGeometry x="110" y="730" width="100" height="130" as="geometry" />
        </mxCell>
        <mxCell id="0bW14wzQByv-zD3mdwpl-51" value="2人" style="whiteSpace=wrap;html=1;aspect=fixed;" parent="0bW14wzQByv-zD3mdwpl-50" vertex="1">
          <mxGeometry width="100" height="100" as="geometry" />
        </mxCell>
        <mxCell id="0bW14wzQByv-zD3mdwpl-52" value="18点" style="rounded=0;whiteSpace=wrap;html=1;" parent="0bW14wzQByv-zD3mdwpl-50" vertex="1">
          <mxGeometry y="100" width="100" height="30" as="geometry" />
        </mxCell>
        <mxCell id="0bW14wzQByv-zD3mdwpl-53" value="" style="group" parent="1" vertex="1" connectable="0">
          <mxGeometry x="230" y="730" width="100" height="130" as="geometry" />
        </mxCell>
        <mxCell id="0bW14wzQByv-zD3mdwpl-54" value="2人" style="whiteSpace=wrap;html=1;aspect=fixed;" parent="0bW14wzQByv-zD3mdwpl-53" vertex="1">
          <mxGeometry width="100" height="100" as="geometry" />
        </mxCell>
        <mxCell id="0bW14wzQByv-zD3mdwpl-55" value="19点" style="rounded=0;whiteSpace=wrap;html=1;" parent="0bW14wzQByv-zD3mdwpl-53" vertex="1">
          <mxGeometry y="100" width="100" height="30" as="geometry" />
        </mxCell>
        <mxCell id="0bW14wzQByv-zD3mdwpl-56" value="" style="group" parent="1" vertex="1" connectable="0">
          <mxGeometry x="717" y="540" width="100" height="130" as="geometry" />
        </mxCell>
        <mxCell id="0bW14wzQByv-zD3mdwpl-57" value="2人" style="whiteSpace=wrap;html=1;aspect=fixed;" parent="0bW14wzQByv-zD3mdwpl-56" vertex="1">
          <mxGeometry width="100" height="100" as="geometry" />
        </mxCell>
        <mxCell id="0bW14wzQByv-zD3mdwpl-58" value="17点" style="rounded=0;whiteSpace=wrap;html=1;" parent="0bW14wzQByv-zD3mdwpl-56" vertex="1">
          <mxGeometry y="100" width="100" height="30" as="geometry" />
        </mxCell>
        <mxCell id="0bW14wzQByv-zD3mdwpl-59" value="" style="group" parent="1" vertex="1" connectable="0">
          <mxGeometry x="595" y="540" width="100" height="130" as="geometry" />
        </mxCell>
        <mxCell id="0bW14wzQByv-zD3mdwpl-60" value="2人" style="whiteSpace=wrap;html=1;aspect=fixed;" parent="0bW14wzQByv-zD3mdwpl-59" vertex="1">
          <mxGeometry width="100" height="100" as="geometry" />
        </mxCell>
        <mxCell id="0bW14wzQByv-zD3mdwpl-61" value="16点" style="rounded=0;whiteSpace=wrap;html=1;" parent="0bW14wzQByv-zD3mdwpl-59" vertex="1">
          <mxGeometry y="100" width="100" height="30" as="geometry" />
        </mxCell>
        <mxCell id="0bW14wzQByv-zD3mdwpl-62" value="" style="group" parent="1" vertex="1" connectable="0">
          <mxGeometry x="717" y="350" width="110" height="130" as="geometry" />
        </mxCell>
        <mxCell id="0bW14wzQByv-zD3mdwpl-63" value="2人" style="whiteSpace=wrap;html=1;aspect=fixed;" parent="0bW14wzQByv-zD3mdwpl-62" vertex="1">
          <mxGeometry width="100" height="100" as="geometry" />
        </mxCell>
        <mxCell id="0bW14wzQByv-zD3mdwpl-64" value="11点" style="rounded=0;whiteSpace=wrap;html=1;" parent="0bW14wzQByv-zD3mdwpl-62" vertex="1">
          <mxGeometry y="100" width="100" height="30" as="geometry" />
        </mxCell>
        <mxCell id="0bW14wzQByv-zD3mdwpl-65" value="" style="group;fillColor=#ffcd28;gradientColor=#ffa500;strokeColor=#d79b00;" parent="1" vertex="1" connectable="0">
          <mxGeometry x="717" y="730" width="100" height="130" as="geometry" />
        </mxCell>
        <mxCell id="0bW14wzQByv-zD3mdwpl-66" value="2人" style="whiteSpace=wrap;html=1;aspect=fixed;fillColor=#dae8fc;strokeColor=#6c8ebf;" parent="0bW14wzQByv-zD3mdwpl-65" vertex="1">
          <mxGeometry width="100" height="100" as="geometry" />
        </mxCell>
        <mxCell id="0bW14wzQByv-zD3mdwpl-67" value="23点" style="rounded=0;whiteSpace=wrap;html=1;fillColor=#dae8fc;strokeColor=#6c8ebf;" parent="0bW14wzQByv-zD3mdwpl-65" vertex="1">
          <mxGeometry y="100" width="100" height="30" as="geometry" />
        </mxCell>
        <mxCell id="0bW14wzQByv-zD3mdwpl-68" value="" style="group;fillColor=#dae8fc;strokeColor=#6c8ebf;" parent="1" vertex="1" connectable="0">
          <mxGeometry x="595" y="730" width="100" height="130" as="geometry" />
        </mxCell>
        <mxCell id="0bW14wzQByv-zD3mdwpl-69" value="2人" style="whiteSpace=wrap;html=1;aspect=fixed;fillColor=#dae8fc;strokeColor=#6c8ebf;" parent="0bW14wzQByv-zD3mdwpl-68" vertex="1">
          <mxGeometry width="100" height="100" as="geometry" />
        </mxCell>
        <mxCell id="0bW14wzQByv-zD3mdwpl-70" value="22点" style="rounded=0;whiteSpace=wrap;html=1;fillColor=#dae8fc;strokeColor=#6c8ebf;" parent="0bW14wzQByv-zD3mdwpl-68" vertex="1">
          <mxGeometry y="100" width="100" height="30" as="geometry" />
        </mxCell>
        <mxCell id="0bW14wzQByv-zD3mdwpl-71" value="" style="group;fillColor=#dae8fc;strokeColor=#6c8ebf;" parent="1" vertex="1" connectable="0">
          <mxGeometry x="350" y="730" width="100" height="130" as="geometry" />
        </mxCell>
        <mxCell id="0bW14wzQByv-zD3mdwpl-72" value="2人" style="whiteSpace=wrap;html=1;aspect=fixed;fillColor=#dae8fc;strokeColor=#6c8ebf;" parent="0bW14wzQByv-zD3mdwpl-71" vertex="1">
          <mxGeometry width="100" height="100" as="geometry" />
        </mxCell>
        <mxCell id="0bW14wzQByv-zD3mdwpl-73" value="20点" style="rounded=0;whiteSpace=wrap;html=1;fillColor=#dae8fc;strokeColor=#6c8ebf;" parent="0bW14wzQByv-zD3mdwpl-71" vertex="1">
          <mxGeometry y="100" width="100" height="30" as="geometry" />
        </mxCell>
        <mxCell id="0bW14wzQByv-zD3mdwpl-74" value="" style="group;fillColor=#dae8fc;strokeColor=#6c8ebf;" parent="1" vertex="1" connectable="0">
          <mxGeometry x="470" y="730" width="100" height="130" as="geometry" />
        </mxCell>
        <mxCell id="0bW14wzQByv-zD3mdwpl-75" value="2人" style="whiteSpace=wrap;html=1;aspect=fixed;fillColor=#dae8fc;strokeColor=#6c8ebf;" parent="0bW14wzQByv-zD3mdwpl-74" vertex="1">
          <mxGeometry width="100" height="100" as="geometry" />
        </mxCell>
        <mxCell id="0bW14wzQByv-zD3mdwpl-76" value="21点" style="rounded=0;whiteSpace=wrap;html=1;fillColor=#dae8fc;strokeColor=#6c8ebf;" parent="0bW14wzQByv-zD3mdwpl-74" vertex="1">
          <mxGeometry y="100" width="100" height="30" as="geometry" />
        </mxCell>
        <mxCell id="0bW14wzQByv-zD3mdwpl-82" value="" style="group" parent="1" vertex="1" connectable="0">
          <mxGeometry x="590" y="160" width="100" height="130" as="geometry" />
        </mxCell>
        <mxCell id="0bW14wzQByv-zD3mdwpl-83" value="2人" style="whiteSpace=wrap;html=1;aspect=fixed;fillColor=#dae8fc;strokeColor=#6c8ebf;" parent="0bW14wzQByv-zD3mdwpl-82" vertex="1">
          <mxGeometry width="100" height="100" as="geometry" />
        </mxCell>
        <mxCell id="0bW14wzQByv-zD3mdwpl-84" value="4点" style="rounded=0;whiteSpace=wrap;html=1;fillColor=#dae8fc;strokeColor=#6c8ebf;" parent="0bW14wzQByv-zD3mdwpl-82" vertex="1">
          <mxGeometry y="100" width="100" height="30" as="geometry" />
        </mxCell>
        <mxCell id="0bW14wzQByv-zD3mdwpl-85" value="" style="whiteSpace=wrap;html=1;aspect=fixed;" parent="1" vertex="1">
          <mxGeometry x="110" y="940" width="230" height="230" as="geometry" />
        </mxCell>
        <mxCell id="0bW14wzQByv-zD3mdwpl-86" value="时间段" style="text;html=1;strokeColor=none;fillColor=none;align=center;verticalAlign=middle;whiteSpace=wrap;rounded=0;" parent="1" vertex="1">
          <mxGeometry x="120" y="980" width="60" height="30" as="geometry" />
        </mxCell>
        <mxCell id="0bW14wzQByv-zD3mdwpl-87" value="18点" style="text;html=1;strokeColor=none;fillColor=none;align=center;verticalAlign=middle;whiteSpace=wrap;rounded=0;" parent="1" vertex="1">
          <mxGeometry x="210" y="980" width="60" height="30" as="geometry" />
        </mxCell>
        <mxCell id="0bW14wzQByv-zD3mdwpl-88" value="可配送人员:" style="text;html=1;strokeColor=none;fillColor=none;align=center;verticalAlign=middle;whiteSpace=wrap;rounded=0;" parent="1" vertex="1">
          <mxGeometry x="130" y="1020" width="70" height="30" as="geometry" />
        </mxCell>
        <mxCell id="0bW14wzQByv-zD3mdwpl-91" value="2" style="rounded=0;whiteSpace=wrap;html=1;" parent="1" vertex="1">
          <mxGeometry x="220" y="1020" width="50" height="30" as="geometry" />
        </mxCell>
        <mxCell id="0bW14wzQByv-zD3mdwpl-92" value="是否开启配送：" style="text;html=1;strokeColor=none;fillColor=none;align=center;verticalAlign=middle;whiteSpace=wrap;rounded=0;" parent="1" vertex="1">
          <mxGeometry x="120" y="1070" width="110" height="20" as="geometry" />
        </mxCell>
        <mxCell id="0bW14wzQByv-zD3mdwpl-93" value="" style="rounded=1;whiteSpace=wrap;html=1;strokeColor=#EBEBEB;fillColor=#E0E0E0;" parent="1" vertex="1">
          <mxGeometry x="220" y="1070" width="60" height="20" as="geometry" />
        </mxCell>
        <mxCell id="0bW14wzQByv-zD3mdwpl-94" value="取消" style="rounded=1;whiteSpace=wrap;html=1;strokeColor=#EBEBEB;fillColor=#E0E0E0;" parent="1" vertex="1">
          <mxGeometry x="180" y="1120" width="70" height="30" as="geometry" />
        </mxCell>
        <mxCell id="0bW14wzQByv-zD3mdwpl-95" value="确定" style="rounded=1;whiteSpace=wrap;html=1;strokeColor=#EBEBEB;fillColor=#E0E0E0;" parent="1" vertex="1">
          <mxGeometry x="260" y="1120" width="70" height="30" as="geometry" />
        </mxCell>
        <mxCell id="5xLBA0SeHVRh13AtDp1s-2" value="" style="rounded=0;whiteSpace=wrap;html=1;" vertex="1" parent="1">
          <mxGeometry x="230" y="60" width="340" height="50" as="geometry" />
        </mxCell>
        <mxCell id="5xLBA0SeHVRh13AtDp1s-3" value="" style="rounded=1;whiteSpace=wrap;html=1;" vertex="1" parent="1">
          <mxGeometry x="630" y="55" width="120" height="55" as="geometry" />
        </mxCell>
        <mxCell id="5xLBA0SeHVRh13AtDp1s-4" value="" style="ellipse;whiteSpace=wrap;html=1;fillColor=#d5e8d4;strokeColor=#82b366;" vertex="1" parent="1">
          <mxGeometry x="680" y="55" width="70" height="55" as="geometry" />
        </mxCell>
      </root>
    </mxGraphModel>
  </diagram>
</mxfile>
